<svg width="140" height="49" viewBox="0 0 140 49" fill="none" xmlns="http://www.w3.org/2000/svg">
<path d="M16.4091 48.6392C13.0994 48.6392 10.2372 47.936 7.82245 46.5298C5.42188 45.1093 3.56819 43.1349 2.26137 40.6065C0.954549 38.0639 0.30114 35.1164 0.30114 31.7642C0.30114 28.3835 0.954549 25.4289 2.26137 22.9005C3.56819 20.3579 5.42188 18.3835 7.82245 16.9772C10.2372 15.5568 13.0994 14.8466 16.4091 14.8466C19.7188 14.8466 22.5739 15.5568 24.9744 16.9772C27.3892 18.3835 29.25 20.3579 30.5568 22.9005C31.8636 25.4289 32.5171 28.3835 32.5171 31.7642C32.5171 35.1164 31.8636 38.0639 30.5568 40.6065C29.25 43.1349 27.3892 45.1093 24.9744 46.5298C22.5739 47.936 19.7188 48.6392 16.4091 48.6392ZM16.4517 41.6079C17.9574 41.6079 19.2145 41.1818 20.223 40.3295C21.2315 39.463 21.9915 38.2841 22.5028 36.7926C23.0284 35.3011 23.2912 33.6037 23.2912 31.7003C23.2912 29.7968 23.0284 28.0994 22.5028 26.6079C21.9915 25.1164 21.2315 23.9375 20.223 23.071C19.2145 22.2045 17.9574 21.7713 16.4517 21.7713C14.9318 21.7713 13.6534 22.2045 12.6165 23.071C11.5938 23.9375 10.8196 25.1164 10.294 26.6079C9.78267 28.0994 9.52699 29.7968 9.52699 31.7003C9.52699 33.6037 9.78267 35.3011 10.294 36.7926C10.8196 38.2841 11.5938 39.463 12.6165 40.3295C13.6534 41.1818 14.9318 41.6079 16.4517 41.6079Z" fill="#243B5A"/>
<path d="M38.419 48V15.2727H47.0696V21.0468H47.4531C48.1349 19.1292 49.2713 17.6164 50.8622 16.5085C52.4531 15.4005 54.3565 14.8466 56.5724 14.8466C58.8168 14.8466 60.7273 15.4076 62.304 16.5298C63.8807 17.6377 64.9318 19.1434 65.4574 21.0468H65.7983C66.4659 19.1718 67.6733 17.6733 69.4205 16.5511C71.1818 15.4147 73.2628 14.8466 75.6634 14.8466C78.7173 14.8466 81.196 15.8196 83.0994 17.7656C85.017 19.6974 85.9759 22.4389 85.9759 25.99V48H76.9205V27.7798C76.9205 25.9616 76.4375 24.598 75.4716 23.6889C74.5057 22.7798 73.2983 22.3253 71.8494 22.3253C70.2017 22.3253 68.9162 22.8508 67.9929 23.902C67.0696 24.9389 66.608 26.3096 66.608 28.0142V48H57.8082V27.588C57.8082 25.9829 57.3466 24.7045 56.4233 23.7528C55.5142 22.8011 54.3139 22.3253 52.8224 22.3253C51.8139 22.3253 50.9048 22.5809 50.0952 23.0923C49.2997 23.5895 48.6676 24.2926 48.1989 25.2017C47.7301 26.0966 47.4957 27.1477 47.4957 28.3551V48H38.419Z" fill="#243B5A"/>
<path d="M102.222 29.0795V48H93.1456V15.2727H101.796V21.0468H102.18C102.904 19.1434 104.119 17.6377 105.823 16.5298C107.528 15.4076 109.594 14.8466 112.023 14.8466C114.296 14.8466 116.278 15.3437 117.968 16.338C119.658 17.3324 120.972 18.7528 121.91 20.5994C122.847 22.4318 123.316 24.6193 123.316 27.1619V48H114.239V28.7812C114.254 26.7784 113.742 25.2159 112.705 24.0937C111.668 22.9574 110.241 22.3892 108.423 22.3892C107.201 22.3892 106.121 22.652 105.184 23.1775C104.261 23.7031 103.536 24.4701 103.011 25.4787C102.499 26.473 102.237 27.6733 102.222 29.0795Z" fill="#243B5A"/>
<path d="M130.47 48V15.2727H139.547V48H130.47Z" fill="#243B5A"/>
<path d="M0 4.5C0 2.01472 2.01472 0 4.5 0H135.5C137.985 0 140 2.01472 140 4.5C140 6.98528 137.985 9 135.5 9H4.5C2.01472 9 0 6.98528 0 4.5Z" fill="#243B5A"/>
</svg>
