<svg width="33" height="49" viewBox="0 0 33 49" fill="none" xmlns="http://www.w3.org/2000/svg">
<path d="M16.4091 48.6392C13.0994 48.6392 10.2372 47.936 7.82245 46.5298C5.42188 45.1093 3.56819 43.1349 2.26137 40.6065C0.954549 38.0639 0.30114 35.1164 0.30114 31.7642C0.30114 28.3835 0.954549 25.4289 2.26137 22.9005C3.56819 20.3579 5.42188 18.3835 7.82245 16.9772C10.2372 15.5568 13.0994 14.8466 16.4091 14.8466C19.7188 14.8466 22.5739 15.5568 24.9744 16.9772C27.3892 18.3835 29.25 20.3579 30.5568 22.9005C31.8636 25.4289 32.5171 28.3835 32.5171 31.7642C32.5171 35.1164 31.8636 38.0639 30.5568 40.6065C29.25 43.1349 27.3892 45.1093 24.9744 46.5298C22.5739 47.936 19.7188 48.6392 16.4091 48.6392ZM16.4517 41.6079C17.9574 41.6079 19.2145 41.1818 20.223 40.3295C21.2315 39.463 21.9915 38.2841 22.5028 36.7926C23.0284 35.3011 23.2912 33.6037 23.2912 31.7003C23.2912 29.7968 23.0284 28.0994 22.5028 26.6079C21.9915 25.1164 21.2315 23.9375 20.223 23.071C19.2145 22.2045 17.9574 21.7713 16.4517 21.7713C14.9318 21.7713 13.6534 22.2045 12.6165 23.071C11.5938 23.9375 10.8196 25.1164 10.294 26.6079C9.78267 28.0994 9.52699 29.7968 9.52699 31.7003C9.52699 33.6037 9.78267 35.3011 10.294 36.7926C10.8196 38.2841 11.5938 39.463 12.6165 40.3295C13.6534 41.1818 14.9318 41.6079 16.4517 41.6079Z" fill="white"/>
<path d="M0 4.5C0 2.01472 2.01472 0 4.5 0H28.5C30.9853 0 33 2.01472 33 4.5C33 6.98528 30.9853 9 28.5 9H4.5C2.01472 9 0 6.98528 0 4.5Z" fill="white"/>
</svg>
